<svg xmlns="http://www.w3.org/2000/svg" xmlns:xlink="http://www.w3.org/1999/xlink" width="500" zoomAndPan="magnify" viewBox="0 0 375 374.999991" height="500" preserveAspectRatio="xMidYMid meet" version="1.0"><defs><clipPath id="7bffb79ce8"><path d="M 112.5 112.5 L 262.5 112.5 L 262.5 262.5 L 112.5 262.5 Z M 112.5 112.5 " clip-rule="nonzero"/></clipPath></defs><g clip-path="url(#7bffb79ce8)"><path fill="#000000" d="M 187.5 262.5 C 228.929688 262.5 262.5 228.929688 262.5 187.5 C 262.5 146.070312 228.929688 112.5 187.5 112.5 C 146.070312 112.5 112.5 146.070312 112.5 187.5 C 112.5 228.929688 146.070312 262.5 187.5 262.5 Z M 155.179688 218.394531 L 158.929688 210.179688 C 159.464844 209.105469 160.179688 208.394531 161.25 208.035156 C 161.605469 207.855469 162.144531 207.855469 162.5 207.855469 C 163.214844 207.855469 163.75 208.035156 164.464844 208.394531 C 170 211.429688 177.679688 213.214844 184.644531 213.214844 C 192.855469 213.214844 198.929688 209.820312 198.929688 205.179688 C 198.929688 202.144531 197.144531 198.570312 184.464844 194.464844 C 170.535156 190.179688 156.429688 183.75 156.429688 169.464844 C 156.429688 158.570312 164.285156 150.179688 177.5 146.785156 L 179.464844 146.25 L 179.464844 137.320312 C 179.464844 135.179688 181.25 133.394531 183.394531 133.394531 L 192.855469 133.394531 C 195 133.394531 196.785156 135.179688 196.785156 137.320312 L 196.785156 145.355469 L 199.105469 145.714844 C 204.820312 146.429688 209.820312 147.855469 214.285156 150 C 215.179688 150.535156 216.070312 151.25 216.429688 152.320312 C 216.785156 153.394531 216.785156 154.464844 216.25 155.355469 L 212.5 163.214844 C 211.785156 164.644531 210.355469 165.535156 208.929688 165.535156 C 208.394531 165.535156 207.855469 165.355469 207.320312 165.179688 C 204.820312 164.105469 198.929688 161.429688 189.644531 161.429688 C 181.25 161.429688 177.5 164.644531 177.5 168.035156 C 177.5 171.605469 181.429688 174.105469 193.75 178.214844 C 206.785156 182.5 220.179688 188.929688 220.179688 204.464844 C 220.179688 212.855469 214.285156 224.105469 198.035156 228.214844 L 195.894531 228.570312 L 195.894531 237.855469 C 195.894531 240 194.105469 241.785156 191.964844 241.785156 L 182.320312 241.785156 C 180.179688 241.785156 178.394531 240 178.394531 237.855469 L 178.394531 229.285156 L 176.070312 229.105469 C 168.75 228.214844 161.785156 226.25 157.144531 223.570312 C 155 222.5 154.285156 220.355469 155.179688 218.394531 Z M 155.179688 218.394531 " fill-opacity="1" fill-rule="nonzero"/></g><path fill="#ffffff" d="M 187.5 375 C 291.070312 375 375 291.070312 375 187.5 C 375 83.929688 291.070312 0 187.5 0 C 83.929688 0 0 83.929688 0 187.5 C 0 291.070312 83.929688 375 187.5 375 Z M 106.695312 264.730469 L 116.070312 244.195312 C 117.410156 241.519531 119.195312 239.730469 121.875 238.839844 C 122.769531 238.394531 124.105469 238.394531 125 238.394531 C 126.785156 238.394531 128.125 238.839844 129.910156 239.730469 C 143.75 247.320312 162.945312 251.785156 180.355469 251.785156 C 200.894531 251.785156 216.070312 243.304688 216.070312 231.695312 C 216.070312 224.105469 211.605469 215.179688 179.910156 204.910156 C 145.089844 194.195312 109.820312 178.125 109.820312 142.410156 C 109.820312 115.179688 129.464844 94.195312 162.5 85.714844 L 167.410156 84.375 L 167.410156 62.054688 C 167.410156 56.695312 171.875 52.230469 177.230469 52.230469 L 200.894531 52.230469 C 206.25 52.230469 210.714844 56.695312 210.714844 62.054688 L 210.714844 82.144531 L 216.519531 83.035156 C 230.804688 84.820312 243.304688 88.394531 254.464844 93.75 C 256.695312 95.089844 258.929688 96.875 259.820312 99.554688 C 260.714844 102.230469 260.714844 104.910156 259.375 107.144531 L 250 126.785156 C 248.214844 130.355469 244.644531 132.589844 241.070312 132.589844 C 239.730469 132.589844 238.394531 132.144531 237.054688 131.695312 C 230.804688 129.019531 216.070312 122.320312 192.855469 122.320312 C 171.875 122.320312 162.5 130.355469 162.5 138.839844 C 162.5 147.769531 172.320312 154.019531 203.125 164.285156 C 235.714844 175 269.195312 191.070312 269.195312 229.910156 C 269.195312 250.894531 254.464844 279.019531 213.839844 289.285156 L 208.480469 290.179688 L 208.480469 313.394531 C 208.480469 318.75 204.019531 323.214844 198.660156 323.214844 L 174.554688 323.214844 C 169.195312 323.214844 164.730469 318.75 164.730469 313.394531 L 164.730469 291.964844 L 158.929688 291.519531 C 140.625 289.285156 123.214844 284.375 111.605469 277.679688 C 106.25 275 104.464844 269.644531 106.695312 264.730469 Z M 106.695312 264.730469 " fill-opacity="1" fill-rule="nonzero"/></svg>