<svg xmlns="http://www.w3.org/2000/svg" xmlns:xlink="http://www.w3.org/1999/xlink" width="500" zoomAndPan="magnify" viewBox="0 0 375 374.999991" height="500" preserveAspectRatio="xMidYMid meet" version="1.0"><defs><clipPath id="c2027ee09e"><path d="M 52.042969 88.21875 L 298 88.21875 L 298 293 L 52.042969 293 Z M 52.042969 88.21875 " clip-rule="nonzero"/></clipPath><clipPath id="249f806cb8"><path d="M 116.714844 88.761719 C 139.050781 88.847656 161.640625 98.984375 174.695312 118.140625 C 175.210938 118.914062 175.382812 118.828125 175.8125 118.140625 C 199.433594 82.921875 257.15625 78.886719 284.386719 112.296875 C 314.535156 149.148438 288.078125 191.578125 259.992188 219.410156 C 235.511719 243.632812 208.109375 264.246094 182.597656 287.269531 C 177.617188 291.734375 173.492188 296.113281 167.652344 289.757812 C 132.777344 251.535156 82.960938 227.054688 59.421875 179.039062 C 38.464844 136.261719 69.472656 88.589844 116.714844 88.761719 Z M 116.714844 88.761719 " clip-rule="nonzero"/></clipPath><clipPath id="22c066bf15"><path d="M 210.820312 169.433594 L 337.5 169.433594 L 337.5 296.113281 L 210.820312 296.113281 Z M 210.820312 169.433594 " clip-rule="nonzero"/></clipPath><clipPath id="63a0859ed0"><path d="M 274.160156 169.433594 C 239.175781 169.433594 210.820312 197.792969 210.820312 232.773438 C 210.820312 267.757812 239.175781 296.113281 274.160156 296.113281 C 309.140625 296.113281 337.5 267.757812 337.5 232.773438 C 337.5 197.792969 309.140625 169.433594 274.160156 169.433594 Z M 274.160156 169.433594 " clip-rule="nonzero"/></clipPath><clipPath id="84a7b1c787"><path d="M 210.820312 169.433594 L 337.484375 169.433594 L 337.484375 296.101562 L 210.820312 296.101562 Z M 210.820312 169.433594 " clip-rule="nonzero"/></clipPath><clipPath id="d32b1b2c3c"><path d="M 274.152344 169.433594 C 239.175781 169.433594 210.820312 197.789062 210.820312 232.765625 C 210.820312 267.746094 239.175781 296.101562 274.152344 296.101562 C 309.128906 296.101562 337.484375 267.746094 337.484375 232.765625 C 337.484375 197.789062 309.128906 169.433594 274.152344 169.433594 Z M 274.152344 169.433594 " clip-rule="nonzero"/></clipPath><clipPath id="21c8e96ac6"><path d="M 253.175781 184.71875 L 295.398438 184.71875 L 295.398438 280.984375 L 253.175781 280.984375 Z M 253.175781 184.71875 " clip-rule="nonzero"/></clipPath></defs><g clip-path="url(#c2027ee09e)"><g clip-path="url(#249f806cb8)"><path fill="#ffffff" d="M 38.464844 78.886719 L 314.246094 78.886719 L 314.246094 296.113281 L 38.464844 296.113281 Z M 38.464844 78.886719 " fill-opacity="1" fill-rule="nonzero"/></g></g><g clip-path="url(#22c066bf15)"><g clip-path="url(#63a0859ed0)"><path fill="#e2e2e2" d="M 210.820312 169.433594 L 337.5 169.433594 L 337.5 296.113281 L 210.820312 296.113281 Z M 210.820312 169.433594 " fill-opacity="1" fill-rule="nonzero"/></g></g><g clip-path="url(#84a7b1c787)"><g clip-path="url(#d32b1b2c3c)"><path stroke-linecap="butt" transform="matrix(1.082624, 0, 0, 1.082624, 210.818662, 169.433866)" fill="none" stroke-linejoin="miter" d="M 58.50018 -0.00025191 C 26.19296 -0.00025191 0.00152467 26.191183 0.00152467 58.498404 C 0.00152467 90.809232 26.19296 117.000667 58.50018 117.000667 C 90.807401 117.000667 116.998836 90.809232 116.998836 58.498404 C 116.998836 26.191183 90.807401 -0.00025191 58.50018 -0.00025191 Z M 58.50018 -0.00025191 " stroke="#000000" stroke-width="11.084184" stroke-opacity="1" stroke-miterlimit="4"/></g></g><g clip-path="url(#21c8e96ac6)"><path fill="#000000" d="M 284.351562 184.71875 L 253.175781 247.933594 L 270.609375 248.039062 L 266.148438 280.984375 L 295.402344 231.140625 L 277.683594 230.597656 L 284.351562 184.71875 " fill-opacity="1" fill-rule="nonzero"/></g></svg>